/* XPM */
static char *result[] = {
/* columns rows colors chars-per-pixel */
"32 32 191 2 ",
"   c #1E3C0F",
".  c #1F3D0F",
"X  c #1F3F10",
"o  c #203E10",
"O  c #203F10",
"+  c #213F10",
"@  c #2F3F18",
"#  c #20400F",
"$  c #204010",
"%  c #214010",
"&  c #214110",
"*  c #214011",
"=  c #224010",
"-  c #224110",
";  c #234111",
":  c #204210",
">  c #224210",
",  c #224310",
"<  c #224311",
"1  c #224112",
"2  c #254111",
"3  c #244211",
"4  c #244212",
"5  c #264212",
"6  c #274212",
"7  c #224411",
"8  c #234411",
"9  c #234511",
"0  c #224611",
"q  c #234611",
"w  c #234711",
"e  c #254411",
"r  c #244611",
"t  c #244711",
"y  c #274114",
"u  c #294312",
"i  c #284213",
"p  c #294313",
"a  c #2A4313",
"s  c #2B4313",
"d  c #2E4612",
"f  c #2F4613",
"g  c #294314",
"h  c #2C4115",
"j  c #2B4414",
"k  c #2A4514",
"l  c #2C4414",
"z  c #2D4414",
"x  c #244811",
"c  c #254A12",
"v  c #274E12",
"b  c #284B12",
"n  c #304515",
"m  c #334716",
"M  c #344A14",
"N  c #374B14",
"B  c #384C14",
"V  c #36401C",
"C  c #3B4919",
"Z  c #3F4A1A",
"A  c #3E4C18",
"S  c #285113",
"D  c #295313",
"F  c #295314",
"G  c #2A5414",
"H  c #2A5514",
"J  c #2A5614",
"K  c #2B5914",
"L  c #2C5914",
"P  c #2D5D15",
"I  c #2E5E15",
"U  c #2E5C16",
"Y  c #2E5F16",
"T  c #355D17",
"R  c #385F1B",
"E  c #2F6016",
"W  c #2F6216",
"Q  c #336117",
"!  c #306216",
"~  c #356818",
"^  c #346D18",
"/  c #356F18",
"(  c #3F6B1A",
")  c #367019",
"_  c #357218",
"`  c #367219",
"'  c #377219",
"]  c #377319",
"[  c #38751A",
"{  c #38761A",
"}  c #38771A",
"|  c #39771A",
" . c #39791A",
".. c #3A791A",
"X. c #3A791B",
"o. c #3A7A1A",
"O. c #3A7A1B",
"+. c #3B7C1B",
"@. c #3B7E1B",
"#. c #414E19",
"$. c #434C1C",
"%. c #444C1C",
"&. c #454C1C",
"*. c #464C1D",
"=. c #484D1D",
"-. c #494E1E",
";. c #4A4E1E",
":. c #4C4F1F",
">. c #4D4F1F",
",. c #475118",
"<. c #4F511E",
"1. c #54571B",
"2. c #55541F",
"3. c #56551F",
"4. c #59571F",
"5. c #5F5E1C",
"6. c #44711C",
"7. c #46751D",
"8. c #48781E",
"9. c #4A7B1E",
"0. c #497D1E",
"q. c #4C7E1F",
"w. c #4D7F1F",
"e. c #494722",
"r. c #4B4424",
"t. c #595720",
"y. c #5A5720",
"u. c #5E5921",
"i. c #615B20",
"p. c #615B21",
"a. c #6F4935",
"s. c #7D4D39",
"d. c #736523",
"f. c #766722",
"g. c #7E6E21",
"h. c #825833",
"j. c #816E23",
"k. c #836C26",
"l. c #866F25",
"z. c #8C7523",
"x. c #8D7524",
"c. c #8C7425",
"v. c #917427",
"b. c #917825",
"n. c #937825",
"m. c #967A25",
"M. c #9C7E26",
"N. c #3C801C",
"B. c #3D811C",
"V. c #3D821C",
"C. c #3F851C",
"Z. c #3F861D",
"A. c #40871D",
"S. c #4D801F",
"D. c #40881D",
"F. c #40891D",
"G. c #41891D",
"H. c #418A1D",
"J. c #428A1E",
"K. c #438B1E",
"L. c #48901F",
"P. c #4E8120",
"I. c #4F8D21",
"U. c #548822",
"Y. c #588F23",
"T. c #4A9320",
"R. c #4B9320",
"E. c #4D9621",
"W. c #4E9621",
"Q. c #539723",
"!. c #59A125",
"~. c #5FA126",
"^. c #5BA426",
"/. c #62AA28",
"(. c #65AE29",
"). c #66AE29",
"_. c #69B22A",
"`. c #6BB32A",
"'. c #6CB42B",
"]. c #6DB52B",
"[. c #6DB62B",
"{. c #6FB72C",
"}. c #75B72D",
"|. c #70B82C",
" X c #71BA2C",
".X c #7EC730",
"XX c #80C831",
"oX c #81C931",
"OX c #81CA31",
"+X c #82CB32",
"@X c None",
/* pixels */
"@X@X@X@X@X@X@X@X@X@X@X@X@X@X@X@X@X@X@X@X@X@X@X@X@X@X@X@X@X@X@X@X",
"@X@X@X@X@X@X@X@X@X@X@X@X@X@X@X@X@X@X@X@X@X@X@X@X@X@X@X@X@X@X@X@X",
"@X@X@X@X@X@X@X@X@X@X@X@X@X@X@X@X@X@X@X@XO O @X@X@X@X@X@X@X@X@X@X",
"@X@X@X@X@X@X@X@X@X@X@X@X@X@X@X@X@X@X@Xt t b @X@X@X@X@X@X@X@X@X@X",
"@X@X@X@X@X@X@X@X@X@X@X@X@X@X@X@X@Xo & ) @.~.7.@X@X@X@X@X@X@X@X@X",
"@X@X@X@X@X@X@X@X@X@X@X@X@X@X@X@X@XD J +.E. XY.T @X@X@X@X@X@X@X@X",
"@X@X@X@X@X@X@X@X@X@Xo O O @X@X@Xx +.A.G.'.XXXXw.@X@X@X@X@X@X@X@X",
"@X@X@X@X@X@X@X@X@X( U.0.! @X@X@X< Y B.H.].oXOXw.@X@X@X@X@X@X@X@X",
"@X@X@X@X@X@X@X@X@X9.+X[...9 % @X% < ..J.`.XXXXq.@X@X@X@X@X@X@X@X",
"@X@X@X@X@X@X@X@X8.}.{.T.C.^ 8 * % 7 o.G.R.|.(.~ . @X@X@X@X@X@X@X",
"@X@X@X@X@X@X@X  S..X).L.Z.) 7 % & v ' C.D./.Q.P @X@X@X@X@X@X@X@X",
"@X@X@X@X@X@X@X  P._.!.`...r % % q [ H | G.K.! @X@X@X@X@X@X@X@X@X",
"@X@X@X@X@X@X@X@X6.I.W.^.| > % % 8 W c E N.F./ G @X@X@X@X@X@X@X@X",
"@X@X@X@X@X@X@X@X@XP D.F.{ , % % % % % & ` F.F.W @X@X@X@X@X@X@X@X",
"@X@X@X@X@X@X@X@XU O.G.O.D & % % ; C Z p S L K F @X@X@X@X@X@X@X@X",
"@X@X@X@X@X@X@Xo I V.B.^ - 5 2 = p ;.:.z O O O @X@X@X@X@X@X@X@X@X",
"@X@X@X@X@X@X@X% 8 c c w j -.$.p &.>.n @X@X@X@X@X@X@X@X@X@X@X@X@X",
"@X@X@X@X@X@X@X@X% + + O p &.=.s -.%.a @X@X@X@X@X@X@X@X@X@X@X@X@X",
"@X@X@X@X@X@X@X@X@X% % % $ l *.a *.a @X@X@X@X@X@X@X@X@X@X@X@X@X@X",
"@X@X@X@X@X@X@X@X@X@X1 % * g A 5.<.p @X@X@X@X@X@X@X@X@X@X@X@X@X@X",
"@X@X@X@X@X@X@X@X@X@X@X% % @XN x.3.i @X@X@X@X@X@X@X@X@X@X@X@X@X@X",
"@X@X@X@X@X@X@X@X@X@X@X@X@X@XN z.2.i @X@X@X@X@X@X@X@X@X@X@X@X@X@X",
"@X@X@X@X@X@X@X@X@X@X@X@X@X@XM j.i.m @X@X@X@X@X@X@X@X@X@X@X@X@X@X",
"@X@X@X@X@X@X@X@X@X@X@X@X} : 6 t.c.3.k { @X@X@X@X@X@X@X@X@X@X@X@X",
"@X@X@X@X@X@X@X@X@X@X@X .R e.1.y.n.f.#.Q X.@X@X@X@X@X@X@X@X@X@X@X",
"@X@X@X@X@X@X@X@X@X@X@X_ V s.v.p.m.M.u.l ` @X@X@X@X@X@X@X@X@X@X@X",
"@X@X@X@X@X@X@X@X@X@X@X` y r.h.k.d.b.,.3 ` @X@X@X@X@X@X@X@X@X@X@X",
"@X@X@X@X@X@X@X@X@X@X@X] w @ a.l.4.g.B 0 ] @X@X@X@X@X@X@X@X@X@X@X",
"@X@X@X@X@X@X@X@X@X@X@X@X/ 4 h f u d e / @X@X@X@X@X@X@X@X@X@X@X@X",
"@X@X@X@X@X@X@X@X@X@X@X@X{ , # X $ X , { @X@X@X@X@X@X@X@X@X@X@X@X",
"@X@X@X@X@X@X@X@X@X@X@X@X@X@X@X@X@X@X@X@X@X@X@X@X@X@X@X@X@X@X@X@X",
"@X@X@X@X@X@X@X@X@X@X@X@X@X@X@X@X@X@X@X@X@X@X@X@X@X@X@X@X@X@X@X@X"
};
