/* XPM */
static char *result[] = {
/* columns rows colors chars-per-pixel */
"32 32 221 2 ",
"   c #33383C",
".  c #35393C",
"X  c #36393C",
"o  c #373A3C",
"O  c #373A3D",
"+  c #38393B",
"@  c #3A393A",
"#  c #3B3A3B",
"$  c #383A3C",
"%  c #393A3C",
"&  c #383A3D",
"*  c #393B3D",
"=  c #3A3A3C",
"-  c #3A3B3D",
";  c #3C3B3C",
":  c #3D3B3C",
">  c #3A3C3E",
",  c #3B3C3E",
"<  c #433F3B",
"1  c #413E3E",
"2  c #423E3E",
"3  c #513E37",
"4  c #573E35",
"5  c #5C3F34",
"6  c #47423A",
"7  c #4D4539",
"8  c #48403F",
"9  c #5D4035",
"0  c #5E4035",
"q  c #59423A",
"w  c #5E463E",
"e  c #5F473F",
"r  c #604236",
"t  c #60463C",
"y  c #63463C",
"u  c #60473F",
"i  c #64463C",
"p  c #61483E",
"a  c #6B483C",
"s  c #68493E",
"d  c #6B4B3F",
"f  c #704B3F",
"g  c #714B3F",
"h  c #714C3F",
"j  c #784C3C",
"k  c #794C3C",
"l  c #794D3C",
"z  c #7F503F",
"x  c #3C3E40",
"c  c #3E3F41",
"v  c #3E4042",
"b  c #3D4144",
"n  c #3F4346",
"m  c #404447",
"M  c #514542",
"N  c #524542",
"B  c #624C46",
"V  c #644D47",
"C  c #664E47",
"Z  c #6B4B40",
"A  c #694D42",
"S  c #6B4F44",
"D  c #714C40",
"F  c #724C40",
"G  c #714E43",
"H  c #724F43",
"J  c #63534E",
"K  c #755045",
"L  c #755145",
"P  c #745246",
"I  c #765246",
"U  c #765247",
"Y  c #725449",
"T  c #71544B",
"R  c #72544A",
"E  c #73554A",
"W  c #77574C",
"Q  c #7B5448",
"!  c #7C5448",
"~  c #7D564A",
"^  c #7A584C",
"/  c #7A594E",
"(  c #7B5A4E",
")  c #635E5C",
"_  c #6F6D6D",
"`  c #796863",
"'  c #796B67",
"]  c #7A6B67",
"[  c #716F6F",
"{  c #72706F",
"}  c #6D7275",
"|  c #717070",
" . c #7F7D7D",
".. c #81503F",
"X. c #825241",
"o. c #855341",
"O. c #845342",
"+. c #885645",
"@. c #8D5846",
"#. c #8D5847",
"$. c #8F5947",
"%. c #81574B",
"&. c #82584B",
"*. c #83594D",
"=. c #855A4D",
"-. c #875C4F",
";. c #8F5A48",
":. c #8F5B49",
">. c #885C4F",
",. c #8F5D4E",
"<. c #8F5E4E",
"1. c #915B49",
"2. c #925B49",
"3. c #935B49",
"4. c #925C49",
"5. c #935C49",
"6. c #925C4A",
"7. c #935C4A",
"8. c #935D4A",
"9. c #925D4B",
"0. c #935D4B",
"q. c #945D4B",
"w. c #955E4C",
"e. c #955F4E",
"r. c #9A5F4D",
"t. c #815D52",
"y. c #835F52",
"u. c #906643",
"i. c #9A604D",
"p. c #98604E",
"a. c #9A604E",
"s. c #9A614E",
"d. c #9B614E",
"f. c #9C614E",
"g. c #9E624F",
"h. c #9E634F",
"j. c #9F7545",
"k. c #866054",
"l. c #80655C",
"z. c #9D6350",
"x. c #9E6350",
"c. c #9F6350",
"v. c #9A6453",
"b. c #9B6453",
"n. c #9F6450",
"m. c #9F6654",
"M. c #A66753",
"N. c #A66854",
"B. c #A76856",
"V. c #A86854",
"C. c #A96854",
"Z. c #A86855",
"A. c #A86955",
"S. c #A96955",
"D. c #AA6956",
"F. c #AA6A56",
"G. c #AC6A56",
"H. c #AD6A56",
"J. c #AC6B56",
"K. c #AD6B56",
"L. c #AC6A57",
"P. c #AC6B57",
"I. c #AD6B57",
"U. c #AD6C57",
"Y. c #AE6C58",
"T. c #AF6C58",
"R. c #957267",
"E. c #96776D",
"W. c #97786E",
"Q. c #9B7869",
"!. c #9E7A6D",
"~. c #977E75",
"^. c #9D7B71",
"/. c #987E76",
"(. c #A17D72",
"). c #A27E73",
"_. c #F0A73E",
"`. c #BF8945",
"'. c #AC885D",
"]. c #BA815C",
"[. c #8C837A",
"{. c #8D857E",
"}. c #9B8077",
"|. c #97817A",
" X c #98827A",
".X c #98827B",
"XX c #9D8178",
"oX c #9B837C",
"OX c #9D847D",
"+X c #A68075",
"@X c #A1837A",
"#X c #A2847B",
"$X c #A0867F",
"%X c #A1877F",
"&X c #A4857C",
"*X c #A5857C",
"=X c #C4814C",
"-X c #C29049",
";X c #D2A564",
":X c #868281",
">X c #888483",
",X c #898483",
"<X c #8A8584",
"1X c #8A8684",
"2X c #8B8685",
"3X c #81868A",
"4X c #82878A",
"5X c #83888A",
"6X c #84888A",
"7X c #8F9396",
"8X c #979B9D",
"9X c #A38880",
"0X c #A7A297",
"qX c #A5A39D",
"wX c #9DA1A4",
"eX c #9CA1A5",
"rX c #9CA2A4",
"tX c #9DA2A4",
"yX c #9CA2A5",
"uX c #9DA2A5",
"iX c None",
/* pixels */
"iXiXiXiXiXiXiXiXiXiXiXiXiXiXiXiXiXiXiXiXiXiXiXiXiXiXiXiXiXiXiXiX",
"iXiXiXiXiXiXiXiXiXiXiXiXiXiXiXiXiXiXiXiXiXiXiXiXiXiXiXiXiXiXiXiX",
"iXiXiXiXiXiXiXiXiXiXiXiXiXiXiXiXiXiXiXiXiXiXiXiXiXiXiXiXiXiXiXiX",
"iXiXiXiXiXiXiXiXiXiXiXiXiX& & $ $ & & iXiXiXiXiXiXiXiXiXiXiXiXiX",
"iXiXiXiXiXiXiXiXiXiXO . C >.*.I I *.>.C . iXiXiXiXiXiXiXiXiXiXiX",
"iXiXiXiXiXiXiXiXiX> T P <.T.V.q.q.Z.T.,.P T - iXiXiXiXiXiXiXiXiX",
"iXiXiXiXiXiXiXiX. V m.w.c.I.N.9.9.N.I.x.w.m.B . iXiXiXiXiXiXiXiX",
"iXiXiXiXiXiXiX  N b.D.0.x.I.N.9.9.N.I.x.0.F.v.M   iXiXiXiXiXiXiX",
"iXiXiXiXiXiXiX2 &.U.A.0.x.I.N.9.9.N.I.x.0.A.I.%.1 iXiXiXiXiXiXiX",
"iXiXiXiXiXiXiX8 e.I.A.0.x.I.N.9.9.N.I.x.0.A.I.e.8 iXiXiXiXiXiXiX",
"iXiXiXiXiXiX% u p.P.A.0.x.I.N.9.9.N.I.x.0.A.P.p.e % iXiXiXiXiXiX",
"iXiXiXiXiXiX: F d.P.A.0.x.I.N.9.9.N.I.x.0.A.P.s.F : iXiXiXiXiXiX",
"iXiXiXiXiXiX: h i.J.V.8.h.I.M.6.6.M.I.g.8.Z.J.i.g ; iXiXiXiXiXiX",
"iXiXiXiXiXiXv ] oX9X%X XOX9X$X|.|.$X9XOX.X%X9XoX' c iXiXiXiXiXiX",
"iXiXiXiXiXiXm 4XuXrXrXyXrXrXrXyXyXrXrXrXyXrXrXuX3Xn iXiXiXiXiXiX",
"iXiXiXiXiXiXc ` }.&X#X/.XX*X@X~.~.@X*XXX/.#X&X}.` c iXiXiXiXiXiX",
"iXiXiXiXiXiX: g i.H.V.7.g.K.M.4.4.M.K.g.7.C.G.i.g ; iXiXiXiXiXiX",
"iXiXiXiXiXiX: F d.P.A.0.x.I.N.9.9.N.I.x.0.A.P.s.D : iXiXiXiXiXiX",
"iXiXiXiXiXiX# a a.P.A.0.x.I.N.9.9.N.I.x.0.A.P.s.D : iXiXiXiXiXiX",
"iXiXiXiXiXiX@ r 4.I.A.0.x.I.N.9.9.N.I.x.0.A.P.s.D : iXiXiXiXiXiX",
"iXiXiXiXiXiX@ 5 o.V.C.7.g.H.M.2.4.M.H.g.7.B.L.r.f ; iXiXiXiXiXiX",
"iXiXiXiXiXiX, J l.R.(.W.^.+X).E.E.).+X^.Q.=X].!.u.< iXiXiXiXiXiX",
"iXiXiXiXiXiXb } 5X6X7X8XtXtXwXtXtXwXwXeX0X_.;XqX-X7 iXiXiXiXiXiX",
"iXiXiXiXiXiXx ) _ { [ |  .,X1X:X:X<X2X>X[.`.'.{.j.6 iXiXiXiXiXiX",
"iXiXiXiXiXiX# 4 t S A q p W / Y R t.k.( E y.k.^ d : iXiXiXiXiXiX",
"iXiXiXiXiXiX@ 9 z 1.#.j X.1.;.+.:.N.I.z.0.A.P.s.D : iXiXiXiXiXiX",
"iXiXiXiXiXiX@ 0 ..3.$.l O.5.@.k O.c.S.n.w.F.Y.f.F : iXiXiXiXiXiX",
"iXiXiXiXiXiX+ 3 s K H i Z L G y y G ! ~ U =.-.Q w = iXiXiXiXiXiX",
"iXiXiXiXiXiXiXX o $ $ o $ $ $ o o $ & & $ * * & o iXiXiXiXiXiXiX",
"iXiXiXiXiXiXiXiXiXiXiXiXiXiXiXiXiXiXiXiXiXiXiXiXiXiXiXiXiXiXiXiX",
"iXiXiXiXiXiXiXiXiXiXiXiXiXiXiXiXiXiXiXiXiXiXiXiXiXiXiXiXiXiXiXiX",
"iXiXiXiXiXiXiXiXiXiXiXiXiXiXiXiXiXiXiXiXiXiXiXiXiXiXiXiXiXiXiXiX"
};
