/* XPM */
static char *result[] = {
/* columns rows colors chars-per-pixel */
"32 32 240 2 ",
"   c black",
".  c #010101",
"X  c #000300",
"o  c #010300",
"O  c #000201",
"+  c #010201",
"@  c #000301",
"#  c #010301",
"$  c #020301",
"%  c #010002",
"&  c #020002",
"*  c #000203",
"=  c #020302",
"-  c #030302",
";  c #020303",
":  c gray1",
">  c #040005",
",  c #040304",
"<  c #050305",
"1  c #050306",
"2  c #060306",
"3  c #060307",
"4  c #070307",
"5  c #040208",
"6  c #070308",
"7  c #070408",
"8  c #080308",
"9  c #080309",
"0  c #0A030A",
"q  c #0A030B",
"w  c #080708",
"e  c #0B030C",
"r  c #0C030D",
"t  c #0E030F",
"y  c #0E0310",
"u  c #0F0310",
"i  c #0E0013",
"p  c #0F0214",
"a  c #100311",
"s  c #100312",
"d  c #110313",
"f  c #120213",
"g  c #120314",
"h  c #130314",
"j  c #130315",
"k  c #110016",
"l  c #140316",
"z  c #150417",
"x  c #130319",
"c  c #160418",
"v  c #18041A",
"b  c #19041B",
"n  c #19031F",
"m  c #19041C",
"M  c #1A041C",
"N  c #1A041D",
"B  c #1B041E",
"V  c #1C041E",
"C  c #1C041F",
"Z  c #1B131F",
"A  c #1D101E",
"S  c #191D1C",
"D  c #200A06",
"F  c #2F0E06",
"G  c #350F05",
"H  c #331006",
"J  c #361005",
"K  c #3B1004",
"L  c #2F0A1E",
"P  c #3E1414",
"I  c #1B0322",
"U  c #1D0420",
"Y  c #1F0422",
"T  c #1D0F24",
"R  c #200423",
"E  c #230227",
"W  c #210424",
"Q  c #220426",
"!  c #230426",
"~  c #230427",
"^  c #240427",
"/  c #250429",
"(  c #26042A",
")  c #27042C",
"_  c #28042C",
"`  c #28042D",
"'  c #29042E",
"]  c #2A042F",
"[  c #34072B",
"{  c #32062F",
"}  c #241028",
"|  c #261428",
" . c #2C0431",
".. c #2D0432",
"X. c #2E0433",
"o. c #2E0434",
"O. c #2F0434",
"+. c #310336",
"@. c #300435",
"#. c #310436",
"$. c #320437",
"%. c #3A0832",
"&. c #35033B",
"*. c #320438",
"=. c #340439",
"-. c #34043A",
";. c #35043A",
":. c #35043B",
">. c #36043C",
",. c #37043C",
"<. c #37043E",
"1. c #38053E",
"2. c #331136",
"3. c #401407",
"4. c #4A1406",
"5. c #641C08",
"6. c #3C0343",
"7. c #3B0443",
"8. c #3C0543",
"9. c #3E0545",
"0. c #3F0545",
"q. c #3E2945",
"w. c #400547",
"e. c #410548",
"r. c #43054A",
"t. c #43054B",
"y. c #44054C",
"u. c #46054D",
"i. c #46054E",
"p. c #480550",
"a. c #490551",
"s. c #4A0552",
"d. c #4B0553",
"f. c #4F0558",
"g. c #500559",
"h. c #51055A",
"j. c #53055C",
"k. c #53055D",
"l. c #56065E",
"z. c #4F1357",
"x. c #4F1F55",
"c. c #651045",
"v. c #721150",
"b. c #560560",
"n. c #570560",
"m. c #580562",
"M. c #590563",
"N. c #5A0564",
"B. c #5B0665",
"V. c #5C0667",
"C. c #5D0668",
"Z. c #5E0668",
"A. c #5F066A",
"S. c #581261",
"D. c #60066B",
"F. c #62066C",
"G. c #64056F",
"H. c #64066F",
"J. c #601E6B",
"K. c #650670",
"L. c #670673",
"P. c #680674",
"I. c #6A0676",
"U. c #6D067A",
"Y. c #6E067A",
"T. c #70067D",
"R. c #71067D",
"E. c #72067F",
"W. c #603366",
"Q. c #6F2B77",
"!. c #712E79",
"~. c #6E4176",
"^. c #79477F",
"/. c #6E5271",
"(. c #BA3317",
"). c #A82B24",
"_. c #C5380E",
"`. c #D9343A",
"'. c #E64113",
"]. c #EA4115",
"[. c #FF4719",
"{. c #F9441D",
"}. c #8E1856",
"|. c #951959",
" X c #A9214E",
".X c #A91C63",
"XX c #C52D41",
"oX c #730680",
"OX c #740681",
"+X c #760683",
"@X c #790687",
"#X c #7D068B",
"$X c #7F078D",
"%X c #860795",
"&X c #850E93",
"*X c #8A069A",
"=X c #8E039F",
"-X c #8C079C",
";X c #8E079E",
":X c #900998",
">X c #9007A0",
",X c #9104A2",
"<X c #9107A2",
"1X c #9307A3",
"2X c #9307A4",
"3X c #9507A6",
"4X c #8B668F",
"5X c #994CA2",
"6X c #A45CAD",
"7X c #B266BB",
"8X c #AB79B1",
"9X c #B478BB",
"0X c #B97BC0",
"qX c #BA7EC1",
"wX c #8F8691",
"eX c #B596B9",
"rX c #B59AB9",
"tX c #A8A5A9",
"yX c #BBACBD",
"uX c #BC81C3",
"iX c #C294C7",
"pX c #CD8DD5",
"aX c #CE8FD6",
"sX c #D197D7",
"dX c #D193D9",
"fX c #D3A3D8",
"gX c #D9A3DF",
"hX c #D7AADC",
"jX c #E1B6E6",
"kX c #E4BDE8",
"lX c #E3CEE5",
"zX c #E1DEE1",
"xX c #E9D5EB",
"cX c #F4E2F6",
"vX c #F3E4F5",
"bX c #F4E4F6",
"nX c #F5F4F5",
"mX c #FDFBFE",
"MX c white",
"NX c None",
/* pixels */
"NXNXNXNXNXNXNXNXNXNXNXNXNXNXNXNXNXNXNXNXNXNXNXNXNXNXNXNXNXNXNXNX",
"NXNXNXNXNXNXNXNXNXNXNXNXNXNXNXNXNXNXNXNXNXNXNXNXNXNXNXNXNXNXNXNX",
"NXNXNXNXNXNXNXNXNXNXNXNXNXNXNXNXNXNXNXNXNXNXNXNXNXNXNXNXNXNXNXNX",
"NXNXNXNXNXNXNXNXNXNXNXNXNXNXNXNXNXNXNXNXNXNXNXNXNXNXNXNXNXNXNXNX",
"NXNXNXNXNXNXNXNXNXNXNXNXNX( NXNXNXNXNXNXNXNXNXn.U NXNXNXNXNXNXNX",
"NXNXNXNXNXNXNXNXNXNXNXNXoXV NX=.c = NXNX8.p.M.a.m NXNXNXNXNXNXNX",
"NXNXNXZ...,.NXNXNXNX .< / 9 , 3 = = v $.j.E.~ z NXNXNXNXNXNXNXNX",
"NXNXNXNX .m.g.R =.Q V : $ : : : : : 9 ;.r.1.4 @.NXNXNXNXNXNXNXNX",
"NXNXNXNXNX$.U.#X` X = : : : - = : : = r e 3 g NXNXNXNXNXNXNXNXNX",
"NXNXNXNXNXN.W a.r = : : : = e C : X n o.: = 9.NXNXNXNXNXNXNXNXNX",
"NXNXNXNXNXNXO.X , , # : = o @.T.x { }.L @ : s NXt.NXNXNXNXNXNXNX",
"NXNXNXNXNXNXB.q :.l.I * r u y.:X|.`.{.3.O : = 6 *.NXNXNXNXNXNXNX",
"NXNXNXNXNXNX+X7.%.XX.Xc.<./ p  X(.'.].F i , : 6 $.NXNXNXNXNXNXNX",
"NXNXNXNXNXNX>XI.[ _.[.).v.5 ; H J 4.K 2.Q.7 = t m.NXNXNXNXNXNXNX",
"NXNXNXNXNXNX<XoXz.P 5.G D   & k Z q.J.iXyXw = g I.NXNXNXNXNXNXNX",
"NXNXNXNXNXNXoX=X7X~.T S } W.wX9XuXnXgXkX/.% : : Y NXNXNXNXNXNXNX",
"NXNXNXNXNXNXm.,X5XlXqXzX0XcXMXvXsXMXjX8XA + : : $ # NXNXNXNXNXNX",
"NXNXNXNXNX) M.2X&XrXaXMXpXmXMXbXdXxX4X| # : : : 6 U M NXNXNXNXNX",
"NXNXNXNXK.oXK.$X*XS.^.tX6XfXhXeX!.x.> + : : : $ ! oXm = NXNXNXNX",
"NXNXNXNXOXL.#.@X;XG.6.&.+.+.E f . . : : : : : # -.A.8.W NXNXNXNX",
"NXNXNXK.C.d < Z.1XOXa.d.w.u X = : : : : : : - q u.R >.y NXNXNXNX",
"NXNXNX' b r NX] %X-Xb.s.1., : : : : : : : : = O.NXNXNXNXNXNXNXNX",
"NXNXNXNX~ NXNX( D.V.w.9.c = : : : : : : : : 2 1.NXNXNXNXNXNXNXNX",
"NXNXNXNXNXNX0.' ^ a 8 8 = : : : : : : : : = e i.NXNXNXNXNXNXNXNX",
"NXNXNXNXNX` k._ X = : : : : : : : : : : = : = q NXNXNXNXNXNXNXNX",
"NXNXNXNXNX#.h.n.Y # = 0 r 1 = : : = : 9 B < : 4 NXNXNXNXNXNXNXNX",
"NXNXNXNXNXY Y.3XH.e C f.P.O.h # , z j / z 1 # _ NXNXNXNXNXNXNXNX",
"NXNXNXNXNXNX9.R.F.N NXNXNXNXNXl X.NXNXNXe._ h q NXNXNXNXNXNXNXNX",
"NXNXNXNXNXNXNXNXNXNXNXNXNXNXNXNXNXNXNXNXNXNXNXNXNXNXNXNXNXNXNXNX",
"NXNXNXNXNXNXNXNXNXNXNXNXNXNXNXNXNXNXNXNXNXNXNXNXNXNXNXNXNXNXNXNX",
"NXNXNXNXNXNXNXNXNXNXNXNXNXNXNXNXNXNXNXNXNXNXNXNXNXNXNXNXNXNXNXNX",
"NXNXNXNXNXNXNXNXNXNXNXNXNXNXNXNXNXNXNXNXNXNXNXNXNXNXNXNXNXNXNXNX"
};
