/* XPM */
static char *result[] = {
/* columns rows colors chars-per-pixel */
"32 32 229 2 ",
"   c black",
".  c #010001",
"X  c #020002",
"o  c #020003",
"O  c #030003",
"+  c #000004",
"@  c #030004",
"#  c #040004",
"$  c #040005",
"%  c #050006",
"&  c #060006",
"*  c #060007",
"=  c #040405",
"-  c #090300",
";  c #030008",
":  c #070008",
">  c #080009",
",  c #09000A",
"<  c #0A000B",
"1  c #0A000C",
"2  c #0B000C",
"3  c #0D000E",
"4  c #0E000F",
"5  c gray3",
"6  c #0A080A",
"7  c #0B0C0B",
"8  c #170600",
"9  c #120006",
"0  c #120704",
"q  c #0B0011",
"w  c #0F0010",
"e  c #0E0011",
"r  c #0F0011",
"t  c #0F0012",
"y  c #100012",
"u  c #110013",
"i  c #100511",
"p  c #130015",
"a  c #140016",
"s  c #140017",
"d  c #160018",
"f  c #18001A",
"g  c #18001B",
"h  c #19001C",
"j  c #1A001D",
"k  c #1B001E",
"l  c #1B001F",
"z  c #1C001F",
"x  c #1E041E",
"c  c #1D061F",
"v  c #1F061E",
"b  c #3C0F01",
"n  c #3C0F03",
"m  c #230415",
"M  c #23021E",
"N  c #1C0020",
"B  c #1D0021",
"V  c #1E0021",
"C  c #1E0022",
"Z  c #1F0022",
"A  c #1F0023",
"S  c #200023",
"D  c #200024",
"F  c #210025",
"G  c #200324",
"H  c #230027",
"J  c #250029",
"K  c #25002A",
"L  c #26002A",
"P  c #26002B",
"I  c #27002C",
"U  c #29002E",
"Y  c #2A002F",
"T  c #29052E",
"R  c #310427",
"E  c #2B0032",
"W  c #2C0031",
"Q  c #2C0032",
"!  c #2D0032",
"~  c #2D0033",
"^  c #2E0033",
"/  c #2F0034",
"(  c #2F0035",
")  c #2E0038",
"_  c #300035",
"`  c #310036",
"'  c #310037",
"]  c #320037",
"[  c #35003B",
"{  c #35003C",
"}  c #36003C",
"|  c #37003C",
" . c #36003D",
".. c #37003D",
"X. c #37003E",
"o. c #38003F",
"O. c #35083B",
"+. c #4D1500",
"@. c #4D1501",
"#. c #4A1306",
"$. c #6D1C05",
"%. c #7F2107",
"&. c #772108",
"*. c #390040",
"=. c #3A0041",
"-. c #3C0043",
";. c #3D0045",
":. c #3F0047",
">. c #3D0A45",
",. c #400047",
"<. c #400048",
"1. c #410048",
"2. c #410049",
"3. c #420049",
"4. c #42004A",
"5. c #42004B",
"6. c #43004B",
"7. c #43014B",
"8. c #42004D",
"9. c #44004C",
"0. c #45004D",
"q. c #46004E",
"w. c #46004F",
"e. c #47004F",
"r. c #470B4E",
"t. c #560841",
"y. c #421349",
"u. c #480051",
"i. c #4A0052",
"p. c #4B0054",
"a. c #4C0055",
"s. c #4D0056",
"d. c #50005A",
"f. c #51005A",
"g. c #52005C",
"h. c #54005E",
"j. c #610A42",
"k. c #6E0C48",
"l. c #620656",
"z. c #432447",
"x. c #473848",
"c. c #4E2653",
"v. c #513358",
"b. c #563F5A",
"n. c #560060",
"m. c #570061",
"M. c #5A0065",
"N. c #5C0067",
"B. c #5D0068",
"V. c #5D0069",
"C. c #5F006A",
"Z. c #5B1763",
"A. c #61006C",
"S. c #62006D",
"D. c #62006E",
"F. c #6F046C",
"G. c #63186C",
"H. c #650071",
"J. c #670073",
"K. c #680074",
"L. c #6A0076",
"P. c #6B0078",
"I. c #6E007A",
"U. c #6F007C",
"Y. c #70007D",
"T. c #72007F",
"R. c #6D3473",
"E. c #724677",
"W. c #795B7C",
"Q. c #BD2D1E",
"!. c #80192B",
"~. c #D13414",
"^. c #DF351F",
"/. c #F03E10",
"(. c #F63E13",
"). c #C42B2B",
"_. c #C42935",
"`. c #8B1641",
"'. c #9D1A44",
"]. c #730080",
"[. c #770085",
"{. c #7A0088",
"}. c #7B008A",
"|. c #7C008B",
" X c #850095",
".X c #860096",
"XX c #870097",
"oX c #880098",
"OX c #890099",
"+X c #8A009A",
"@X c #8B009B",
"#X c #8D009D",
"$X c #8D009E",
"%X c #894392",
"&X c #8A4D92",
"*X c #8F4198",
"=X c #904998",
"-X c #8D5294",
";X c #9C41A7",
":X c #A256AB",
">X c #9D63A4",
",X c #A274A8",
"<X c #A967B1",
"1X c #BD72C6",
"2X c #9B9D9B",
"3X c #B9A3BC",
"4X c #C688CE",
"5X c #C195C6",
"6X c #C98ED0",
"7X c #C991D0",
"8X c #CA92D1",
"9X c #CB93D2",
"0X c #CD93D4",
"qX c #CE98D5",
"wX c #D19ED7",
"eX c #D4AAD9",
"rX c #D9AADE",
"tX c #DBBCDF",
"yX c #CAC4CA",
"uX c #E2C2E5",
"iX c #E8D2EB",
"pX c #EEE1EF",
"aX c #F1E8F2",
"sX c #F3E9F4",
"dX c #F3EAF4",
"fX c #F5EFF5",
"gX c #F4F0F5",
"hX c #F7F1F8",
"jX c None",
/* pixels */
"jXjXjXjXjXjXjXjXjXjXjXjXjXjXjXjXjXjXjXjXjXjXjXjXjXjXjXjXjXjXjXjX",
"jXjXjXjXjXjXjXjXjXjXjXjXjXjXjXjXjXjXjXjXjXjXjXjXjXjXjXjXjXjXjXjX",
"jXjXjXjXjXjXjXjXjXjXjXjXjXjXjXjXjXjXjXjXjXjXjXjXjXjXjXjXjXjXjXjX",
"jXjXjXjXjXjXjXjXjXjXjXjXjXjXjXjXjXjXjXjXjXjXjXjXjXjXjXjXjXjXjXjX",
"jXjXjXjXjXjXjXjXjXjXjXjXjXjXjXjXjXjXjXjXjXjXjXjXjXjXjXjXjXjXjXjX",
"jXjXjXjXjXjXjXjXjXjXjXjXjXjXjXjXjXjXjXjXjXjXjXjXjXjXjXjXjXjXjXjX",
"jXjXjXjXjXjXjXjXjXjXjXjXjXjXjXjXjXjXjXjXjXjXjXU B jXjXjXjXjXjXjX",
"jXjXjXjXjXjXjXjXjXjXjXjXjXjXjXs.jXjXjXjXjX] e.F jXjXjXjXjXjXjXjX",
"jXjXjXjXjXjXjXjXjXjXjXjXjXjX4.2 jX^ jXC _ i.s.Z jXjXjXjXjXjXjXjX",
"jXjXjXjXjXjXjXjXjXjXjXjXy $ :   X < # ! N.g.A p jXjXjXjXjXjXjXjX",
"jXjXjXjXjX~ S 1.A A jX` ,           s / 4.D u jXjXjXjXjXjXjXjXjX",
"jXjXjXjXjXjX_ f.A.D.d 3                 t   % N d.jXjXjXjXjXjXjX",
"jXjXjXjXjXjX0.k q.M.Q         4 #     R m     # c c.f jXjXjXjXjX",
"jXjXjXjXjXjXjXY h  .L         0.{ 1 j._.#.      5 z.A.k jXjXjXjX",
"jXjXjXjXjXjXjXjXw / 5.q   e l P F.`.^./.n ; . . Y Y.}.V jXjXjXjX",
"jXjXjXjXjXjXjXjXD.8.k.'.t.l.| + !.~.%.$.v E.6 : :.p.! O jXjXjXjX",
"jXjXjXjXjXjXjXjX.X) +.(.Q.).M   - 8 9 x ,XyX7 % o.U . jXjXjXjXjX",
"jXjXjXjX@ ' W jXC.<.0 &.@.b o 2 O.>.&X:XhX2X=   > o   jXjXjXjXjX",
"jXjXjXjXj P.{.n.2.K.b.v.E y.%X*XeX1XdX4XpXx.        jXjXjXjXjXjX",
"jXjXjXjXjXf s.XXoXOXG.3X0X6XiXqXgX7XfXrX>Xi       X jXjXjXjXjXjX",
"jXjXjXjXjX:.s 2.C. X[.W.tX8XaX9XsXwX5X-X(       @ a K jXjXjXjXjX",
"jXjXjXjXjXjXa.a W m.+XV.Z.;XuX<X=XR.G X         z o.1.[ } D jXjX",
"jXjXjXjXjXjXjXjXI g B.XXh.7.r.T % .             O $ ..I.J.H jXjX",
"jXjXjXjXjXjXjXjXjX! S.@XT.3.-.:.D                 . d.$XU.jXjXjX",
"jXjXjXjXjXjXjXjXjXjX,..X}.u.9.:.w               * 4 J.|.B.jXjXjX",
"jXjXjXjXjXjXjXjXjXjXjXL.#X].w.-.&               J jXC F jXjXjXjX",
"jXjXjXjXjXjXjXjXjXjXjX=.H.J.0.6.j                 jXjXjXjXjXjXjX",
"jXjXjXjXjXjXjXjXjXjXjXjXjXX.;.' d                 jXjXjXjXjXjXjX",
"jXjXjXjXjXjXjXjXjXjXjXjXjXq.C                 jXjXjXjXjXjXjXjXjX",
"jXjXjXjXjXjXjXjXjXjXjXjXjXjXjXr r     jXjXjXjXjXjXjXjXjXjXjXjXjX",
"jXjXjXjXjXjXjXjXjXjXjXjXjXjXjX=.*.,   jXjXjXjXjXjXjXjXjXjXjXjXjX",
"jXjXjXjXjXjXjXjXjXjXjXjXjXjXjX1 2 jXjXjXjXjXjXjXjXjXjXjXjXjXjXjX"
};
