/* XPM */
static char *result[] = {
/* columns rows colors chars-per-pixel */
"32 32 217 2 ",
"   c #538C26",
".  c #589229",
"X  c #508925",
"o  c #538B26",
"O  c #538C25",
"+  c #4C8523",
"@  c #4E8723",
"#  c #528C26",
"$  c #528A24",
"%  c #518924",
"&  c #4B8522",
"*  c #548E27",
"=  c #579028",
"-  c #518A25",
";  c #528B25",
":  c #4B8422",
">  c #508924",
",  c #599329",
"<  c #548C26",
"1  c #538B24",
"2  c #4C8623",
"3  c #558E27",
"4  c #528B26",
"5  c #528A25",
"6  c #528B24",
"7  c #4A8422",
"8  c #518B24",
"9  c #4F8725",
"0  c #458020",
"q  c #518B25",
"w  c #4C8622",
"e  c #4E8824",
"r  c #508825",
"t  c #498222",
"y  c #4B8622",
"u  c #508A24",
"i  c #4E8823",
"p  c #4F8825",
"a  c #4D8624",
"s  c #468020",
"d  c #528C25",
"f  c #4E8724",
"g  c #478121",
"h  c #4E8924",
"j  c #4D8723",
"k  c #4F8924",
"l  c #4B8423",
"z  c #437F1F",
"x  c #58912A",
"c  c #4A8423",
"v  c #4D8623",
"b  c #4A8324",
"n  c #4C8524",
"m  c #5A932A",
"M  c #4F8926",
"N  c #4B8525",
"B  c #548D27",
"V  c #57902A",
"C  c #498322",
"Z  c #4B8425",
"A  c #4D8724",
"S  c #5A942B",
"D  c #4C8624",
"F  c #498223",
"G  c #579129",
"H  c #538D28",
"J  c #4A8322",
"K  c #4C8526",
"L  c #518929",
"P  c #4D8626",
"I  c #518926",
"U  c #457F21",
"Y  c #508926",
"T  c #518A27",
"R  c #4E8727",
"E  c #508827",
"W  c #457F20",
"Q  c #4C8625",
"!  c #508928",
"~  c #4E8726",
"^  c #478122",
"/  c #508A26",
"(  c #518A28",
")  c #518827",
"_  c #447E20",
"`  c #4F8826",
"'  c #508927",
"]  c #4F8828",
"[  c #4F8726",
"{  c #518A26",
"}  c #4A8323",
"|  c #4D8625",
" . c #4B8524",
".. c #498324",
"X. c #4B8424",
"o. c #4E8725",
"O. c #508A27",
"+. c #488122",
"@. c #488123",
"#. c #4E8825",
"$. c #4A8424",
"%. c #4E8625",
"&. c #4E8626",
"*. c #528A28",
"=. c #568E29",
"-. c #4C8525",
";. c #538B28",
":. c #518927",
">. c #4F8925",
",. c #568E28",
"<. c #548D28",
"1. c #4D8525",
"2. c #578F29",
"3. c #538B27",
"4. c #538C27",
"5. c #528A26",
"6. c #4D8823",
"7. c #488321",
"8. c #528D26",
"9. c #4F8A24",
"0. c #518925",
"q. c #498221",
"w. c #4A8321",
"e. c #498323",
"r. c #4F8824",
"t. c #518B26",
"y. c #548E28",
"u. c #4A8421",
"i. c #59932A",
"p. c #4B8324",
"a. c #558F28",
"s. c #508A25",
"d. c #498321",
"f. c #548D2A",
"g. c #468022",
"h. c #558F29",
"j. c #478123",
"k. c #568F2A",
"l. c #4D8726",
"z. c #468021",
"x. c #528B29",
"c. c #498224",
"v. c #528B27",
"b. c #4F8626",
"n. c #488222",
"m. c #478021",
"M. c #4F8625",
"N. c #538B29",
"B. c #4F8827",
"V. c #568F29",
"C. c #558D28",
"Z. c #528A29",
"A. c #518928",
"S. c #508826",
"D. c #558D27",
"F. c #528926",
"G. c #548C27",
"H. c #569028",
"J. c #538B25",
"K. c #518A24",
"L. c #488221",
"P. c #548E26",
"I. c #468121",
"U. c #558F27",
"Y. c #528C24",
"T. c #45801F",
"R. c #59922A",
"E. c #56902B",
"W. c #4A8325",
"Q. c #59932B",
"!. c #579029",
"~. c #538D29",
"^. c #508828",
"/. c #4F8727",
"(. c #447E1F",
"). c #457E20",
"_. c #4D8725",
"`. c #538C28",
"'. c #518B27",
"]. c #528A27",
"[. c #538A28",
"{. c #568F28",
"}. c #498421",
"|. c #4C8723",
" X c #437E1F",
".X c #58922A",
"XX c #4D8622",
"oX c #4B8523",
"OX c #4F8823",
"+X c #528C27",
"@X c #478022",
"#X c #538C29",
"$X c #518A29",
"%X c #528B28",
"&X c #4E8826",
"*X c #4D8524",
"=X c #467F21",
"-X c #558E29",
";X c #538D27",
":X c #478221",
">X c #4A8522",
",X c #508923",
"<X c #4C8424",
"1X c #579128",
"2X c #4D8722",
"3X c #478120",
"4X c #558F2A",
"5X c #57912A",
"6X c #4A8425",
"7X c #568F2B",
"8X c #58912B",
"9X c #508726",
"0X c #488121",
"qX c #508727",
"wX c #558E28",
"eX c #538A27",
"rX c white",
/* pixels */
"  . X o O + @ . #   $ % & * = - ; O : > , - < 1 @ 2 = 3 4 5 6 7 ",
"O 2 8 9 9 0 q w 8 e r t y u i u p a s d & d f r g h j u k r l z ",
"x c k v b n m M & X t N B V C u l Z A S D @ e F N G H J - t K f ",
"L P I j U Y T R E - W Q Y ! ~ I 7 ^ / ( P ) k _ ` ' ] [ { g } T ",
"|  .[ ..X.o.O...9 P +.p Y N a ~ @.| #.M $.[ Z F #.O.$.%.&.^ #.#.",
"` [ *.T A | =.-.;.:.>.c ,.~ :.*.{ n Y <.1.;.T #.X.2.-.;.:.Y c 3.",
"4.B 5.- ; - ; B 5.4 ; - ; # 4.5.- ; - ; B 5.4 ; - ; 4.o 4 - ; - ",
"; # u - - g 6.- d > 4 : 7.- 8.> 5.> s 9.q q 0.; q.y - 8.> 4 @ z ",
"G w.q l X.e.. A i r.} $.t.y.u.q } -.c i.7 u a p.e.a./ w s.} -.d.",
"f.-.p k g.o.h.! a ; g $.4.f.n - 2 j.Y k.l.o.q z.-.y.x.n ; J c.v.",
"~ n b.n.C / P $.[ n W / | -.| &.z.D p P X.[ } m.{ | Z M.| W p o.",
"o.~ N.B.n  .V.N ;.*.| } C.o.' Z.~  .~ <.-.;.A.D } V.N *.Z.| $.T ",
"v.S.I s.s.{ B p 5.X q p D.Y I I - >.3.4.p 5.X q X D.p F.Y q p G.",
"d H.- J.O : j a.  ; ; r.7   a.- 5 J.7 k H.- o J.v y * * 5 5 K.L.",
"P.7 d a | I.* & K.e %.t j - w q a n g U.7 Y.a %.g q @ i X %.X.T.",
"V l r.f c.Q R.' : - t Z * E.C u + W.o.Q.| v > F N !.~.J - J Z X ",
"^.| ) & z.{ /.P E r.(.#.` /.~ S.L.t Y B.| ) j ).Y ~ R S.r s n Y ",
"_.-.E N n | `.$.S./.F a v.Q o.E b | o.'.$.E P b D `.$.` B.F | M ",
":.[ ].{ e [ ,.-.;.Y {  .,.` :.:.{ a T G.| [.Y X Q ,.| ].Y { n 4.",
"  {.{ ; O r.u a.4   6 - k   3 4 - O r.- {.5.o ; X k * G.o K.J.e ",
"d k K.X X 0 k e d r.5.J }.u u > I f 0 8 e 8 p - g |.r.q r.{ +  X",
".XJ u + X.X.i.#.XXk F N   V.d.q J -.D S oXOXA } X.= +X: s.t -.oX",
"x.P Y r.U ` `.B.[ ; z.X.v.x.| { + @XY #X~ S.- U | `.$X&.4 L.F %X",
"| X.&.n.l >.&X..M.-.z.Y o.N *X&.m.a #.~ c b.b +.Y &X$.%.1.=Xp o.",
"` ` N.:.D -.V.N #X*.o.e.-X~ T *.Y  .` <.| N.( _.b 2.-.;.*.` c ].",
"4.5.{ - ; 5.  { 5.{ ; X < { 5.{ - - o o { 5.- ; 0.< { 5.{ q 0.  ",
"; * > 5 ; q.j ;X# - ; v 7.; * > 5 $ :Xk * q 5 J.: >X  P.X ; > 0 ",
"{.u.d n n n.H.+ ,Xe <Xe.>.# & q X.n C 1Xu.8 a n n.;Xr.2Xs.X.X.3X",
"4X .r.r.@.| 5X! + q n.6XB 7Xc s.2 c.` 8Xl.a - +.N V.#Xc q J b '.",
"/.1.9XC 0X{ P N 9Xa ).Y _.P %.[ 3Xc Y ~ -.qXoXW { | K [ o.W _.p ",
"_.P *.~ n n wXX.T ! X.X.`._.` ( -.n o.4.N *.B. .X.-X .' ( X. .' ",
":.%.:./ #.Y C.X.eXp t.D ,.o.S.S.t.A 3.4.<X].X s.o.,.n ].` t.D G."
};
