/* XPM */
static char *result[] = {
/* columns rows colors chars-per-pixel */
"32 32 144 2 ",
"   c #020102",
".  c #090304",
"X  c #070807",
"o  c #080908",
"O  c #12050A",
"+  c #0F100E",
"@  c #10110E",
"#  c #0A0312",
"$  c #11041F",
"%  c #131314",
"&  c #1A1A1A",
"*  c #140525",
"=  c #1C0534",
"-  c #240F39",
";  c #262725",
":  c #313131",
">  c gray23",
",  c #570D25",
"<  c #650F2B",
"1  c #68132F",
"2  c #69233B",
"3  c #240743",
"4  c #290B46",
"5  c #3C185E",
"6  c #3B0B6D",
"7  c #3E1462",
"8  c #411563",
"9  c #434343",
"0  c #494A4A",
"q  c #5D5D5D",
"w  c #695978",
"e  c #5F6060",
"r  c #636464",
"t  c #696969",
"y  c #727372",
"u  c #8B133B",
"i  c #99143F",
"p  c #89144E",
"a  c #9D1543",
"s  c #AA1748",
"d  c #B6184D",
"f  c #AC1958",
"g  c #B21851",
"h  c #8E2E4C",
"j  c #8B2245",
"k  c #9B2B4F",
"l  c #9D3357",
"z  c #A72651",
"x  c #AA2753",
"c  c #BB2C5B",
"v  c #BE335D",
"b  c #9A156B",
"n  c #88167D",
"m  c #AE1C6B",
"M  c #9D3366",
"N  c #BD3461",
"B  c #BF3C67",
"V  c #BF3D69",
"C  c #B6366A",
"Z  c #B12472",
"A  c #BC3C75",
"S  c #C13564",
"D  c #C13E6A",
"F  c #C23E67",
"G  c #B75979",
"H  c #826A73",
"J  c #C9537C",
"K  c #480E87",
"L  c #490D89",
"P  c #540F89",
"I  c #521293",
"U  c #68109F",
"Y  c #5B0FAA",
"T  c #5F11B0",
"R  c #610FA3",
"E  c #6510A1",
"W  c #611EA2",
"Q  c #6213B1",
"!  c #6715BB",
"~  c #731BC9",
"^  c #902E8D",
"/  c #B83B87",
"(  c #B83D88",
")  c #B5388D",
"_  c #A929A4",
"`  c #A631A7",
"'  c #AC35AF",
"]  c #AC36B1",
"[  c #B6409E",
"{  c #B147BD",
"}  c #CA5F84",
"|  c #D0678B",
" . c #D1708F",
".. c #D57D9C",
"X. c #D178A5",
"o. c #9F25C7",
"O. c #8C24DF",
"+. c #A93DD4",
"@. c #8524E5",
"#. c #8B2AEC",
"$. c #8A2AE4",
"%. c #9438ED",
"&. c #992CF6",
"*. c #962CFD",
"=. c #9230F0",
"-. c #9831FF",
";. c #9D3BFD",
":. c #9A39F5",
">. c #A03FFE",
",. c #AD41C1",
"<. c #A145FD",
"1. c #A64AFE",
"2. c #AA52FD",
"3. c #AD5CFA",
"4. c #B265FA",
"5. c #B66EFA",
"6. c #BC7BF8",
"7. c #838383",
"8. c #8D8E8E",
"9. c #939393",
"0. c #979898",
"q. c #9A9B9A",
"w. c #98949C",
"e. c #A4A4A4",
"r. c #A9AAA9",
"t. c #B3B4B1",
"y. c #D886A3",
"u. c #DF96AE",
"i. c #E19CB2",
"p. c #C68FFA",
"a. c #CE9FF6",
"s. c #C690F9",
"d. c #CD9DF9",
"f. c #C894FA",
"g. c #D4AEF6",
"h. c #DDBFF7",
"j. c #D7B1F9",
"k. c #CFD0CF",
"l. c #D0D0D0",
"z. c #EEC7D7",
"x. c #DDC1F8",
"c. c #E4CFF8",
"v. c white",
"b. c None",
/* pixels */
"b.b.b.b.b.b.b.b.b.b.b.b.b.b.b.b.b.b.b.b.b.b.b.b.b.b.b.b.b.b.b.b.",
"b.b.b.b.b.b.b.b.b.b.b.b.b.b.b.b.b.b.b.b.b.b.b.b.b.b.b.b.b.b.b.b.",
"b.b.b.b.b.b.b.b.b.b.b.b.b.b.b.b.b.b.b.b.b.b.b.b.b.b.b.b.b.b.b.b.",
"b.b.b.b.b.b.b.b.b.b.b.b.b.b.b.b.b.b.b.b.b.b.b.b.b.b.b.b.b.b.b.b.",
"b.b.b.b.b.b.b.b.b.b.b.b.b.b.b.b.b.b.b.b.b.b.b.b.b.b.b.b.b.b.b.b.",
"b.b.b.b.b.b.b.b.b.b.b.b.b.b.b.b.b.b.b.b.b.b.b.b.b.b.b.b.b.b.b.b.",
"b.b.b.b.b.b.b.b.b.b.b.b.b.b.b.b.b.b.b.b.b.b.b.b.b.b.b.b.b.b.b.b.",
"b.b.b.b.b.b.b.b.b.b.. . 8 #.#.#.#.#.$.8 . . . b.b.b.b.b.b.b.b.b.",
"b.b.b.b.b.b.b.b.b.2 h h ^ -.*.*.*.*.] M h j < . b.b.b.b.b.b.b.b.",
"b.b.b.b.b.b.b.b.H G F F ) <.>.*.&.] X.u.| N z < b.b.b.b.b.b.b.b.",
"b.b.b.b.b.b.b.1 G J F ) +.2.1.-.&.( i.z...B N u . b.b.b.b.b.b.b.",
"b.b.b.b.b.b.b.x S B v _ -.>.;.-.&.(  .y.} V N a , b.b.b.b.b.b.b.",
"b.b.b.b.b.b.o l D N Z { 3.>.4.&.&.] A B V V v d s b.b.b.b.b.b.b.",
"b.b.b.b.b.b.O k N Z +.p.a.6.g.3.-.*.] A D D N d a O b.b.b.b.b.b.",
"b.b.b.b.b.b.O p m o.d.d.6.h.3.c.<.*.*.` C S c g p O b.b.b.b.b.b.",
"b.b.b.b.b.b.# P $.&.f.p.5.g.3.h.<.*.*.~ n f f b P # b.b.b.b.b.b.",
"b.b.b.b.b.b.# K @.*.;.:.%.%.=.<.*.*.*.~ Y U U U K # b.b.b.b.b.b.",
"b.b.b.b.b.b.  * I @.*.W - - 5 #.*.~ ! Y Y Y Y K *   b.b.b.b.b.b.",
"b.b.b.b.b.b.    * 3 4 w t.t.w.5 Q T Y Y 6 = = *     b.b.b.b.b.b.",
"b.b.b.b.b.b.b.. ; @   y v.v.l.% = 3 3 3 $   @ ; . b.b.b.b.b.b.b.",
"b.b.b.b.b.b.b.o t t & y v.v.l.%         % > t t o b.b.b.b.b.b.b.",
"b.b.b.b.b.b.b.b.q 0.y r 9.8.7.9 9 9 9 9 q 8.0.e b.b.b.b.b.b.b.b.",
"b.b.b.b.b.b.b.b.b.e 0.y : : 9 0.q.q.q.e.e.0.r b.b.b.b.b.b.b.b.b.",
"b.b.b.b.b.b.b.b.b.b.q 7.7.e.e.e.e.e.r.0.8.q b.b.b.b.b.b.b.b.b.b.",
"b.b.b.b.b.b.b.b.b.b.b.o 0 e.q.q.q.0.0.0 o b.b.b.b.b.b.b.b.b.b.b.",
"b.b.b.b.b.b.b.b.b.b.b.b.b.b.b.& & & & b.b.b.b.b.b.b.b.b.b.b.b.b.",
"b.b.b.b.b.b.b.b.b.b.b.b.b.b.b.b.b.b.b.b.b.b.b.b.b.b.b.b.b.b.b.b.",
"b.b.b.b.b.b.b.b.b.b.b.b.b.b.b.b.b.b.b.b.b.b.b.b.b.b.b.b.b.b.b.b.",
"b.b.b.b.b.b.b.b.b.b.b.b.b.b.b.b.b.b.b.b.b.b.b.b.b.b.b.b.b.b.b.b.",
"b.b.b.b.b.b.b.b.b.b.b.b.b.b.b.b.b.b.b.b.b.b.b.b.b.b.b.b.b.b.b.b.",
"b.b.b.b.b.b.b.b.b.b.b.b.b.b.b.b.b.b.b.b.b.b.b.b.b.b.b.b.b.b.b.b.",
"b.b.b.b.b.b.b.b.b.b.b.b.b.b.b.b.b.b.b.b.b.b.b.b.b.b.b.b.b.b.b.b."
};
