/* XPM */
static char *result[] = {
/* columns rows colors chars-per-pixel */
"32 32 121 2 ",
"   c #453C35",
".  c #36540D",
"X  c #38560F",
"o  c #37580F",
"O  c #375610",
"+  c #395616",
"@  c #385B11",
"#  c #3A511B",
"$  c #395818",
"%  c #376415",
"&  c #396216",
"*  c #376718",
"=  c #3A6618",
"-  c #376C1B",
";  c #396A1B",
":  c #39711F",
">  c #397622",
",  c #377B24",
"<  c #387C25",
"1  c #45681C",
"2  c #41701F",
"3  c #41412C",
"4  c #4A552D",
"5  c #4B5B2D",
"6  c #494039",
"7  c #585D3D",
"8  c #47622B",
"9  c #437321",
"0  c #497724",
"q  c #407B25",
"w  c #4B7B27",
"e  c #4C7D29",
"r  c #504640",
"t  c #544944",
"y  c #5A5D41",
"u  c #635653",
"i  c #665856",
"p  c #675858",
"a  c #6C5C5C",
"s  c #6C605B",
"d  c #378027",
"f  c #388127",
"g  c #37852A",
"h  c #388429",
"j  c #378D2E",
"k  c #388B2D",
"l  c #388F30",
"z  c #399131",
"x  c #3E9835",
"c  c #44852C",
"v  c #4A832C",
"b  c #4A892F",
"n  c #53842E",
"m  c #458E31",
"M  c #498E32",
"N  c #568631",
"B  c #538A31",
"V  c #5F8935",
"C  c #459134",
"Z  c #4D9536",
"A  c #429937",
"S  c #459C39",
"D  c #4A9E3B",
"F  c #569336",
"G  c #529438",
"H  c #549E3D",
"J  c #5B9F3E",
"K  c #61973D",
"L  c #669B3F",
"P  c #4CA23E",
"I  c #55A13F",
"U  c #639E41",
"Y  c #6A9E42",
"T  c #51A641",
"R  c #5BA743",
"E  c #56AA44",
"W  c #59AD46",
"Q  c #5CAE49",
"!  c #5EB249",
"~  c #63A242",
"^  c #6AA646",
"/  c #66AC4A",
"(  c #76A64A",
")  c #75A94B",
"_  c #63B54D",
"`  c #69B44D",
"'  c #65B84E",
"]  c #66B650",
"[  c #6BB752",
"{  c #67BA50",
"}  c #6BBC52",
"|  c #7CB554",
" . c #72BC54",
".. c #72BF58",
"X. c #6EC054",
"o. c #71C356",
"O. c #78C156",
"+. c #74C459",
"@. c #7AC55B",
"#. c #77C85A",
"$. c #7CCB5D",
"%. c #7FCC60",
"&. c #83CD62",
"*. c #92CA65",
"=. c #86D165",
"-. c #89D666",
";. c #8CD569",
":. c #8DD96A",
">. c #9AD66E",
",. c #93DB6E",
"<. c #98D86E",
"1. c #97E070",
"2. c #9BE374",
"3. c #A1E777",
"4. c #A4EA7A",
"5. c #AAED7E",
"6. c #ADEF80",
"7. c #AEF181",
"8. c #B4F585",
"9. c #B8F888",
"0. c None",
/* pixels */
"0.0.0.0.0.0.0.0.0.0.0.0.0.0.0.1 1 0.0.0.0.0.0.0.0.0.0.0.0.0.0.0.",
"0.0.0.0.0.0.0.0.0.0.0.0.0.0.9 *.>.N 0.0.0.0.0.0.0.0.0.0.0.0.0.0.",
"0.0.0.0.0.0.0.0.0.0.0.0.0.0.R 6.9.` 0.0.0.0.0.0.0.0.0.0.0.0.0.0.",
"0.0.0.0.0.0.0.0.0.0.0.0.m M ,.8.9.&.c C 0.0.0.0.0.0.0.0.0.0.0.0.",
"0.0.0.0.0.0.0.0.0.z T ;.,.%.7.9.8.:.o.:.,._ z 0.0.0.0.0.0.0.0.0.",
"0.0.0.0.0.0.0.0.0.S ;.2.2.2.9.9.8.:.:.-.=.-.E 0.0.0.0.0.0.0.0.0.",
"0.0.0.0.0.0.0.0.#.%.2.2.4.8.9.9.9.4.8.3.2.2.=.@.0.0.0.0.0.0.0.0.",
"0.0.0.0.0.0.E _ W o.-.4.9.9.9.9.9.9.8.8.2.2.$.W ] Q C 0.0.0.0.0.",
"0.0.0.0.0.e =.@.Q ;.7.6.8.9.9.9.9.9.8.2.2.2.;.Q $.;.F 0.0.0.0.0.",
"0.0.0.0.0.@.@.} +.6.&.2.8.9.9.9.9.9.9.4.2.=.2.+.} +.%.0.0.0.0.0.",
"0.0.0.0.N 3.4...[ [ :.8.9.7.@.7.8.=.5.:.5.,.o.' } 2.6.Y 0.0.0.0.",
"0.0.0.0.N %.2.3.;.W ;.%.=.2.-.7.9.,.7.4.%.! ' %.,.2.&.U 0.0.0.0.",
"0.0.0.. V 8.8.:.} $...} Q ..7.4.2.7.=.] W W X.} :.8.8.( O 0.0.0.",
"0.0.0 ~ L ) &.^ ;.4.9.8.=.] ] W W ] _ ' $.2.:.&.~ | | L U 0 0.0.",
"0.0.M ' ~ - R >.6.9.9.6.,.2.W X.o.W #.:.3.2.2.2.<./ > F ] M 0.0.",
"0.0.M T S Z c @.;.6.;.2.7.8.2.7.8.2.1.2.2.&.1.6.1.G m D T M 0.0.",
"0.0.d P X.#.I P } _ P 5.9.7.4.8.9.5.7.5.5.! W  .P P o.o.P f - 0.",
"0.& b X.$.X.! X.} _ A Q ;.O.8.8.8.7...,.' x W X.X.! } $.X.B = 0.",
"0.M I I ! P #.$.+.#.P k v } 3.:.-.2.[ v k P X.o.$.$.E E I I Z < ",
"0.- : ; f P #._ } &.#.! A _ W W W W ! A I #.&.X.! o.E f = < : @ ",
"0.= v J < : H ` O.&.o.E } #.S ' } P +.X.I X.&.#.` I q : H B ; 0.",
"0.0 R A f ; - 2 2 ~ P P #.o.E } X.E } $.P P R w 2 : ; < A I n @ ",
"0.; z k h z z f & & h o.$.D ' / W } D o.$.Z % @ < k k f g z : @ ",
"0.0.; ; f f : k f > = w v ; w  .O.B ; w v ; : f k < f g : ; = 0.",
"0.0.0.& > ; g z z j < g g - & > 9 ; * f g < k z z k - : ; X 0.0.",
"0.0.0.@ @ = j z k , > z j < k j j k < l z , > k l z : @ @ 0.0.0.",
"0.0.0.0.0.= : > d * k k : @ f z z g @ - k j - < , : ; 0.0.0.0.0.",
"0.0.0.0.0.0.0.0.& @ ; < $ @ % j z - o + , - @ & 0.0.0.0.0.0.0.0.",
"0.0.0.0.0.0.0.0.0.0.0.$ 3 4 5 > , 8 5 3 # 0.0.0.0.0.0.0.0.0.0.0.",
"0.0.0.0.0.0.0.0.0.0.0.0.  p s y 7 a a 6 0.0.0.0.0.0.0.0.0.0.0.0.",
"0.0.0.0.0.0.0.0.0.0.0.0.0.r u i p i t 0.0.0.0.0.0.0.0.0.0.0.0.0.",
"0.0.0.0.0.0.0.0.0.0.0.0.0.0.        0.0.0.0.0.0.0.0.0.0.0.0.0.0."
};
